<?xml version="1.0" standalone="no"?>
<!DOCTYPE svg PUBLIC "-//W3C//DTD SVG 20010904//EN"
 "http://www.w3.org/TR/2001/REC-SVG-20010904/DTD/svg10.dtd">
<svg version="1.0" xmlns="http://www.w3.org/2000/svg"
 width="377.000000pt" height="134.000000pt" viewBox="0 0 377.000000 134.000000"
 preserveAspectRatio="xMidYMid meet">

<g transform="translate(0.000000,134.000000) scale(0.100000,-0.100000)"
fill="#000000" stroke="none">
<path d="M545 1326 c-469 -91 -694 -629 -430 -1025 231 -349 725 -400 1019
-106 152 152 223 354 196 556 -22 159 -83 281 -196 394 -151 152 -380 222
-589 181z m273 -70 c197 -53 360 -206 423 -397 35 -106 35 -272 0 -378 -62
-190 -227 -344 -421 -396 -72 -19 -230 -19 -304 0 -201 53 -378 230 -430 431
-21 80 -21 228 0 308 51 198 220 370 419 427 75 22 240 24 313 5z"/>
<path d="M530 1196 c-164 -46 -300 -167 -367 -326 -25 -59 -27 -76 -28 -195 0
-147 15 -204 80 -302 103 -155 244 -233 435 -241 94 -4 114 -1 183 22 100 33
168 77 235 151 273 299 136 773 -257 889 -65 19 -215 20 -281 2z m256 -200
c57 -27 89 -61 105 -116 21 -70 6 -104 -86 -200 -63 -66 -85 -96 -90 -124 -16
-80 -115 -72 -115 10 0 54 18 85 96 165 85 88 92 113 45 160 -23 22 -39 29
-69 29 -51 0 -79 -23 -111 -91 -21 -44 -31 -55 -54 -57 -62 -7 -88 68 -48 134
24 39 80 85 123 101 57 20 147 16 204 -11z m-76 -556 c43 -43 11 -120 -50
-120 -64 0 -94 80 -44 119 34 26 68 27 94 1z"/>
<path d="M1010 1306 c0 -2 16 -13 35 -25 35 -20 43 -20 1282 -23 942 -3 1257
-7 1284 -16 19 -6 48 -26 65 -43 48 -50 42 -97 -75 -542 -56 -214 -110 -405
-120 -425 -21 -40 -58 -79 -106 -108 l-30 -19 34 39 c18 22 39 53 46 70 27 64
225 848 225 890 0 31 -6 48 -21 62 -20 18 -57 19 -1241 22 l-1219 2 52 -62
c59 -71 120 -192 146 -288 23 -86 23 -253 0 -340 -39 -148 -137 -302 -248
-390 l-47 -37 106 -7 c59 -3 460 -10 892 -16 432 -5 889 -11 1015 -12 l230 -3
67 33 c70 34 124 87 154 150 9 20 64 217 122 437 138 530 139 563 16 625 l-49
25 -1307 3 c-720 1 -1308 1 -1308 -2z m883 -357 c50 -13 115 -73 138 -125 40
-89 33 -226 -16 -298 l-23 -34 49 -31 c50 -31 59 -47 37 -69 -20 -20 -51 -14
-102 19 -42 26 -52 29 -79 20 -49 -18 -167 -13 -212 8 -192 87 -192 414 0 502
46 21 148 25 208 8z m354 -19 c9 -17 13 -78 13 -190 0 -112 4 -173 13 -190 18
-36 82 -55 136 -40 64 17 71 39 71 237 0 136 3 173 16 191 20 28 69 30 84 3 6
-12 10 -94 10 -198 0 -189 -10 -233 -56 -275 -73 -65 -255 -65 -328 0 -47 42
-56 85 -56 283 0 134 3 188 12 197 21 21 71 10 85 -18z m557 8 c13 -19 16 -60
16 -248 0 -188 -3 -229 -16 -248 -20 -28 -69 -30 -84 -3 -6 12 -10 111 -10
251 0 140 4 239 10 251 15 27 64 25 84 -3z m508 -13 c8 -17 8 -34 2 -50 -5
-14 -73 -102 -152 -195 l-143 -170 149 0 c161 0 177 -5 170 -52 l-3 -23 -211
-3 c-199 -2 -212 -1 -228 17 -12 13 -16 28 -12 43 3 13 72 102 152 198 l147
175 -124 3 c-124 3 -149 10 -149 41 0 37 19 41 207 41 l183 0 12 -25z"/>
<path d="M1753 869 c-104 -30 -139 -221 -57 -319 29 -33 89 -54 130 -44 l27 7
-41 24 c-43 26 -55 56 -26 67 9 4 40 -7 70 -23 l54 -29 17 31 c25 47 24 172
-2 216 -37 62 -103 90 -172 70z"/>
</g>
</svg>
