<?xml version="1.0" standalone="no"?>
<!DOCTYPE svg PUBLIC "-//W3C//DTD SVG 20010904//EN"
 "http://www.w3.org/TR/2001/REC-SVG-20010904/DTD/svg10.dtd">
<svg version="1.0" xmlns="http://www.w3.org/2000/svg"
 width="1200.000000pt" height="1200.000000pt" viewBox="0 0 1200.000000 1200.000000"
 preserveAspectRatio="xMidYMid meet">

<g transform="translate(0.000000,1200.000000) scale(0.100000,-0.100000)"
fill="#000000" stroke="none">
<path d="M9870 7441 c-19 -4 -52 -15 -73 -25 -78 -38 -92 -58 -396 -590 -72
-127 -86 -147 -95 -131 -204 352 -524 592 -906 677 -97 21 -128 23 -400 23
-316 0 -336 -2 -514 -57 -603 -183 -1001 -775 -946 -1408 20 -231 90 -433 220
-636 12 -20 1 -43 -144 -295 -171 -299 -207 -345 -296 -374 -32 -11 -73 -16
-114 -13 -35 1 -63 1 -61 -2 2 -3 34 -21 71 -40 121 -62 245 -51 337 30 33 29
78 99 177 270 73 127 138 237 144 246 10 13 22 5 81 -50 193 -182 422 -298
690 -353 129 -26 579 -26 710 0 194 38 354 104 519 214 110 73 268 224 326
310 19 29 39 53 43 53 5 0 113 -60 240 -134 128 -74 373 -216 546 -316 469
-271 543 -310 603 -320 100 -16 205 21 265 94 15 19 64 97 107 173 44 76 136
235 205 353 68 118 157 271 196 340 40 69 116 202 170 295 54 94 121 211 150
260 29 50 58 108 64 130 25 92 4 195 -55 263 -43 50 -25 40 -1059 634 -654
376 -637 367 -695 378 -58 11 -59 11 -110 1z m499 -484 c13 -6 33 -23 43 -37
18 -24 19 -64 29 -715 8 -515 7 -694 -1 -710 -26 -49 -125 -72 -195 -45 -51
20 -52 24 -63 750 -11 726 -11 718 39 754 28 19 113 21 148 3z m-1731 -371
c113 -58 170 -189 128 -290 -9 -21 -199 -219 -500 -520 -396 -394 -493 -487
-524 -496 -56 -15 -122 -12 -167 9 -49 23 -549 523 -565 564 -25 68 0 178 53
235 57 61 178 90 254 61 15 -6 100 -82 189 -170 l161 -160 385 385 c284 284
394 387 419 395 44 13 129 7 167 -13z m1771 -1246 c53 -37 66 -103 35 -180
-31 -77 -123 -104 -203 -60 -47 27 -71 71 -71 130 0 57 22 94 72 119 54 28
122 24 167 -9z"/>
<path d="M4384 6931 c-110 -5 -124 -8 -162 -33 -67 -45 -92 -115 -72 -202 14
-63 41 -101 93 -129 40 -21 57 -22 308 -27 l267 -5 -76 -105 c-303 -423 -596
-823 -670 -918 -104 -132 -152 -218 -152 -273 0 -77 35 -127 115 -165 l50 -24
545 0 c333 0 559 4 581 10 20 6 43 18 52 28 16 17 13 20 -46 54 -34 20 -164
95 -289 167 l-226 131 -91 0 c-50 0 -91 3 -91 6 0 3 12 21 26 40 l27 35 -25
27 c-57 61 -84 158 -68 244 7 34 35 96 79 173 59 104 467 811 538 933 l25 42
-309 -2 c-169 -1 -362 -4 -429 -7z"/>
<path d="M911 6920 c-316 -67 -593 -337 -683 -665 -32 -117 -32 -379 0 -515
60 -259 263 -521 486 -630 237 -116 580 -86 791 67 l40 29 160 -80 c144 -73
165 -81 215 -80 94 1 147 43 175 137 20 67 19 82 -6 135 -25 51 -105 115 -212
169 -55 27 -67 38 -62 51 89 214 115 416 80 627 -17 108 -32 152 -86 259 -127
249 -309 413 -529 476 -85 24 -295 36 -369 20z m310 -423 c68 -33 163 -118
212 -189 55 -80 78 -156 84 -278 7 -136 -6 -204 -62 -316 -103 -211 -269 -310
-462 -275 -83 15 -151 51 -231 126 -70 65 -113 128 -143 211 -30 81 -33 303
-5 379 55 153 128 259 215 315 77 49 122 60 236 57 85 -2 108 -6 156 -30z"/>
<path d="M2293 6906 c-100 -47 -122 -136 -130 -533 -14 -661 56 -979 262
-1187 103 -105 208 -146 376 -146 171 0 282 51 415 192 59 62 77 89 102 154
73 193 106 470 118 1009 5 234 4 292 -9 353 -30 140 -76 182 -198 182 -92 0
-132 -22 -166 -90 -22 -43 -23 -53 -23 -340 0 -473 -20 -762 -60 -894 -36
-116 -87 -167 -172 -174 -63 -5 -105 19 -150 83 -83 119 -95 236 -121 1180 -3
125 -27 177 -97 213 -56 28 -82 28 -147 -2z"/>
<path d="M3634 6891 c-51 -13 -91 -42 -116 -85 l-23 -41 -3 -818 -2 -818 21
-31 c29 -40 75 -58 151 -58 104 1 181 49 198 124 4 20 11 386 15 814 7 683 6
781 -8 813 -35 85 -129 125 -233 100z"/>
</g>
</svg>
